<svg xmlns="http://www.w3.org/2000/svg" width="1600" height="2520" viewBox="0 0 1600 2520" role="img" aria-labelledby="title desc">
<title id="title">Four-layer production DAG</title><desc id="desc">One shared English source; independent zh-Hans, ko and es branches Contract view; general L1-4 automatic dispatch is incomplete. Every locale requires L3, including explicit audio_unavailable. Selected locales follow the release plan.</desc>
<style>text{font-family:"PingFang SC","Noto Sans CJK SC","Microsoft YaHei",Arial,sans-serif;} text{font-variant-ligatures:none}</style>
<defs><marker id="arrow" markerWidth="8" markerHeight="8" refX="7" refY="4" orient="auto-start-reverse" markerUnits="userSpaceOnUse"><path d="M1 1 L7 4 L1 7" fill="none" stroke="#648A86" stroke-width="1.7" stroke-linecap="round" stroke-linejoin="round"/></marker></defs>
<rect x="0" y="0" width="1600" height="2520" rx="0" fill="#F5F4EF" stroke="none" />
<rect x="64" y="57" width="44" height="5" rx="2" fill="#267D72" stroke="none" />
<text x="124" y="69" font-size="17" font-weight="600" fill="#64787A" text-anchor="start" letter-spacing="2">CURRENT PACKAGE DEPENDENCIES</text>
<text x="64" y="127" font-size="44" font-weight="650" fill="#19343D" text-anchor="start" >Four-layer production DAG</text>
<text x="64" y="172" font-size="22" font-weight="400" fill="#60737A" text-anchor="start" >One shared English source; independent zh-Hans, ko and es branches</text>
<text x="1536" y="69" font-size="18" font-weight="500" fill="#82918F" text-anchor="end" >EN</text>
<path d="M64 197H1536" stroke="#D8DEDA" stroke-width="1.3"/>
<path data-edge="SRC:ZT" d="M800.0 400 L800.0 440.0 L288.0 440.0 L288.0 480" fill="none" stroke="#648A86" stroke-width="2.5" stroke-linecap="round" stroke-linejoin="round" stroke-dasharray="none" marker-end="url(#arrow)"/>
<path data-edge="SRC:KT" d="M800.0 400 L800.0 480" fill="none" stroke="#648A86" stroke-width="2.5" stroke-linecap="round" stroke-linejoin="round" stroke-dasharray="none" marker-end="url(#arrow)"/>
<path data-edge="SRC:ET" d="M800.0 400 L800.0 440.0 L1312.0 440.0 L1312.0 480" fill="none" stroke="#648A86" stroke-width="2.5" stroke-linecap="round" stroke-linejoin="round" stroke-dasharray="none" marker-end="url(#arrow)"/>
<path data-edge="ZT:ZA" d="M288.0 670 L288.0 740" fill="none" stroke="#648A86" stroke-width="2.5" stroke-linecap="round" stroke-linejoin="round" stroke-dasharray="none" marker-end="url(#arrow)"/>
<path data-edge="KT:KA" d="M800.0 670 L800.0 740" fill="none" stroke="#648A86" stroke-width="2.5" stroke-linecap="round" stroke-linejoin="round" stroke-dasharray="none" marker-end="url(#arrow)"/>
<path data-edge="ET:EA" d="M1312.0 670 L1312.0 740" fill="none" stroke="#648A86" stroke-width="2.5" stroke-linecap="round" stroke-linejoin="round" stroke-dasharray="none" marker-end="url(#arrow)"/>
<path data-edge="ZA:ZR" d="M288.0 1000 L288.0 1070" fill="none" stroke="#648A86" stroke-width="2.5" stroke-linecap="round" stroke-linejoin="round" stroke-dasharray="none" marker-end="url(#arrow)"/>
<path data-edge="KA:KR" d="M800.0 1000 L800.0 1070" fill="none" stroke="#648A86" stroke-width="2.5" stroke-linecap="round" stroke-linejoin="round" stroke-dasharray="none" marker-end="url(#arrow)"/>
<path data-edge="EA:ER" d="M1312.0 1000 L1312.0 1070" fill="none" stroke="#648A86" stroke-width="2.5" stroke-linecap="round" stroke-linejoin="round" stroke-dasharray="none" marker-end="url(#arrow)"/>
<path data-edge="ZR:PLAN" d="M288.0 1300 L288.0 1335.0 L800.0 1335.0 L800.0 1370" fill="none" stroke="#648A86" stroke-width="2.5" stroke-linecap="round" stroke-linejoin="round" stroke-dasharray="none" marker-end="url(#arrow)"/>
<path data-edge="KR:PLAN" d="M800.0 1300 L800.0 1370" fill="none" stroke="#648A86" stroke-width="2.5" stroke-linecap="round" stroke-linejoin="round" stroke-dasharray="none" marker-end="url(#arrow)"/>
<path data-edge="ER:PLAN" d="M1312.0 1300 L1312.0 1335.0 L800.0 1335.0 L800.0 1370" fill="none" stroke="#648A86" stroke-width="2.5" stroke-linecap="round" stroke-linejoin="round" stroke-dasharray="none" marker-end="url(#arrow)"/>
<path data-edge="PLAN:AUTH" d="M800.0 1570 L800.0 1640" fill="none" stroke="#648A86" stroke-width="2.5" stroke-linecap="round" stroke-linejoin="round" stroke-dasharray="none" marker-end="url(#arrow)"/>
<path data-edge="AUTH:HTTP" d="M800.0 1810 L800.0 1880" fill="none" stroke="#648A86" stroke-width="2.5" stroke-linecap="round" stroke-linejoin="round" stroke-dasharray="none" marker-end="url(#arrow)"/>
<path data-edge="HTTP:CLIENT" d="M800.0 2050 L800.0 2120" fill="none" stroke="#648A86" stroke-width="2.5" stroke-linecap="round" stroke-linejoin="round" stroke-dasharray="none" marker-end="url(#arrow)"/>
<g id="node-SRC" data-node="SRC">
<rect x="380" y="234" width="840" height="170" rx="18" fill="#E7E8E2" stroke="none" />
<rect x="380" y="230" width="840" height="170" rx="18" fill="#FFFFFF" stroke="#DAE0DC" stroke-width="1.25" stroke-dasharray="none"/>
<rect x="381" y="248" width="4" height="134" rx="2" fill="#46799B" stroke="none" />
<rect x="404" y="251" width="35" height="28" rx="8" fill="#EAF1F6" stroke="none" />
<text x="421.5" y="271" font-size="16" font-weight="700" fill="#46799B" text-anchor="middle" data-box="404,251,35,28" >01</text>
<text x="453" y="271" font-size="15" font-weight="600" fill="#46799B" text-anchor="start" data-box="448,248,752,35" >INPUT</text>
<text x="404" y="312" font-size="25" font-weight="650" fill="#19343D" text-anchor="start" data-box="400,285,800,102" >L1 English Source + Anchors</text>
<text x="404" y="352" font-size="21" font-weight="400" fill="#52676E" text-anchor="start" data-box="400,285,800,102" >Frozen identity, hashes, provenance and review</text>
</g>
<g id="node-ZT" data-node="ZT">
<rect x="64" y="484" width="448" height="190" rx="18" fill="#E7E8E2" stroke="none" />
<rect x="64" y="480" width="448" height="190" rx="18" fill="#FFFFFF" stroke="#DAE0DC" stroke-width="1.25" stroke-dasharray="none"/>
<rect x="65" y="498" width="4" height="154" rx="2" fill="#267D72" stroke="none" />
<rect x="88" y="501" width="35" height="28" rx="8" fill="#EAF3EF" stroke="none" />
<text x="105.5" y="521" font-size="16" font-weight="700" fill="#267D72" text-anchor="middle" data-box="88,501,35,28" >02</text>
<text x="137" y="521" font-size="15" font-weight="600" fill="#267D72" text-anchor="start" data-box="132,498,360,35" >CONTRACT / COMPONENT</text>
<text x="88" y="562" font-size="25" font-weight="650" fill="#19343D" text-anchor="start" data-box="84,535,408,122" >L2 zh-Hans Text</text>
<text x="88" y="602" font-size="21" font-weight="400" fill="#52676E" text-anchor="start" data-box="84,535,408,122" >Locale review + human approval</text>
</g>
<g id="node-ZA" data-node="ZA">
<rect x="64" y="744" width="448" height="260" rx="18" fill="#E7E8E2" stroke="none" />
<rect x="64" y="740" width="448" height="260" rx="18" fill="#FFFFFF" stroke="#DAE0DC" stroke-width="1.25" stroke-dasharray="none"/>
<rect x="65" y="758" width="4" height="224" rx="2" fill="#267D72" stroke="none" />
<rect x="88" y="761" width="35" height="28" rx="8" fill="#EAF3EF" stroke="none" />
<text x="105.5" y="781" font-size="16" font-weight="700" fill="#267D72" text-anchor="middle" data-box="88,761,35,28" >03</text>
<text x="137" y="781" font-size="15" font-weight="600" fill="#267D72" text-anchor="start" data-box="132,758,360,35" >CONTRACT / COMPONENT</text>
<text x="88" y="822" font-size="25" font-weight="650" fill="#19343D" text-anchor="start" data-box="84,795,408,192" >L3 zh-Hans Audio Package</text>
<text x="88" y="862" font-size="21" font-weight="400" fill="#52676E" text-anchor="start" data-box="84,795,408,192" >human_reviewed</text>
<text x="88" y="891" font-size="21" font-weight="400" fill="#52676E" text-anchor="start" data-box="84,795,408,192" >or explicit audio_unavailable</text>
</g>
<g id="node-ZR" data-node="ZR">
<rect x="64" y="1074" width="448" height="230" rx="18" fill="#E7E8E2" stroke="none" />
<rect x="64" y="1070" width="448" height="230" rx="18" fill="#FFFFFF" stroke="#DAE0DC" stroke-width="1.25" stroke-dasharray="none"/>
<rect x="65" y="1088" width="4" height="194" rx="2" fill="#267D72" stroke="none" />
<rect x="88" y="1091" width="35" height="28" rx="8" fill="#EAF3EF" stroke="none" />
<text x="105.5" y="1111" font-size="16" font-weight="700" fill="#267D72" text-anchor="middle" data-box="88,1091,35,28" >04</text>
<text x="137" y="1111" font-size="15" font-weight="600" fill="#267D72" text-anchor="start" data-box="132,1088,360,35" >CONTRACT / COMPONENT</text>
<text x="88" y="1152" font-size="25" font-weight="650" fill="#19343D" text-anchor="start" data-box="84,1125,408,162" >L4 zh-Hans Release Package</text>
<text x="88" y="1192" font-size="21" font-weight="400" fill="#52676E" text-anchor="start" data-box="84,1125,408,162" >Bound hashes + page approval</text>
</g>
<g id="node-KT" data-node="KT">
<rect x="576" y="484" width="448" height="190" rx="18" fill="#E7E8E2" stroke="none" />
<rect x="576" y="480" width="448" height="190" rx="18" fill="#FFFFFF" stroke="#DAE0DC" stroke-width="1.25" stroke-dasharray="none"/>
<rect x="577" y="498" width="4" height="154" rx="2" fill="#267D72" stroke="none" />
<rect x="600" y="501" width="35" height="28" rx="8" fill="#EAF3EF" stroke="none" />
<text x="617.5" y="521" font-size="16" font-weight="700" fill="#267D72" text-anchor="middle" data-box="600,501,35,28" >05</text>
<text x="649" y="521" font-size="15" font-weight="600" fill="#267D72" text-anchor="start" data-box="644,498,360,35" >CONTRACT / COMPONENT</text>
<text x="600" y="562" font-size="25" font-weight="650" fill="#19343D" text-anchor="start" data-box="596,535,408,122" >L2 ko Text</text>
<text x="600" y="602" font-size="21" font-weight="400" fill="#52676E" text-anchor="start" data-box="596,535,408,122" >Locale review + human approval</text>
</g>
<g id="node-KA" data-node="KA">
<rect x="576" y="744" width="448" height="260" rx="18" fill="#E7E8E2" stroke="none" />
<rect x="576" y="740" width="448" height="260" rx="18" fill="#FFFFFF" stroke="#DAE0DC" stroke-width="1.25" stroke-dasharray="none"/>
<rect x="577" y="758" width="4" height="224" rx="2" fill="#267D72" stroke="none" />
<rect x="600" y="761" width="35" height="28" rx="8" fill="#EAF3EF" stroke="none" />
<text x="617.5" y="781" font-size="16" font-weight="700" fill="#267D72" text-anchor="middle" data-box="600,761,35,28" >06</text>
<text x="649" y="781" font-size="15" font-weight="600" fill="#267D72" text-anchor="start" data-box="644,758,360,35" >CONTRACT / COMPONENT</text>
<text x="600" y="822" font-size="25" font-weight="650" fill="#19343D" text-anchor="start" data-box="596,795,408,192" >L3 ko Audio Package</text>
<text x="600" y="862" font-size="21" font-weight="400" fill="#52676E" text-anchor="start" data-box="596,795,408,192" >human_reviewed</text>
<text x="600" y="891" font-size="21" font-weight="400" fill="#52676E" text-anchor="start" data-box="596,795,408,192" >or explicit audio_unavailable</text>
</g>
<g id="node-KR" data-node="KR">
<rect x="576" y="1074" width="448" height="230" rx="18" fill="#E7E8E2" stroke="none" />
<rect x="576" y="1070" width="448" height="230" rx="18" fill="#FFFFFF" stroke="#DAE0DC" stroke-width="1.25" stroke-dasharray="none"/>
<rect x="577" y="1088" width="4" height="194" rx="2" fill="#267D72" stroke="none" />
<rect x="600" y="1091" width="35" height="28" rx="8" fill="#EAF3EF" stroke="none" />
<text x="617.5" y="1111" font-size="16" font-weight="700" fill="#267D72" text-anchor="middle" data-box="600,1091,35,28" >07</text>
<text x="649" y="1111" font-size="15" font-weight="600" fill="#267D72" text-anchor="start" data-box="644,1088,360,35" >CONTRACT / COMPONENT</text>
<text x="600" y="1152" font-size="25" font-weight="650" fill="#19343D" text-anchor="start" data-box="596,1125,408,162" >L4 ko Release Package</text>
<text x="600" y="1192" font-size="21" font-weight="400" fill="#52676E" text-anchor="start" data-box="596,1125,408,162" >Bound hashes + page approval</text>
</g>
<g id="node-ET" data-node="ET">
<rect x="1088" y="484" width="448" height="190" rx="18" fill="#E7E8E2" stroke="none" />
<rect x="1088" y="480" width="448" height="190" rx="18" fill="#FFFFFF" stroke="#DAE0DC" stroke-width="1.25" stroke-dasharray="none"/>
<rect x="1089" y="498" width="4" height="154" rx="2" fill="#267D72" stroke="none" />
<rect x="1112" y="501" width="35" height="28" rx="8" fill="#EAF3EF" stroke="none" />
<text x="1129.5" y="521" font-size="16" font-weight="700" fill="#267D72" text-anchor="middle" data-box="1112,501,35,28" >08</text>
<text x="1161" y="521" font-size="15" font-weight="600" fill="#267D72" text-anchor="start" data-box="1156,498,360,35" >CONTRACT / COMPONENT</text>
<text x="1112" y="562" font-size="25" font-weight="650" fill="#19343D" text-anchor="start" data-box="1108,535,408,122" >L2 es Text</text>
<text x="1112" y="602" font-size="21" font-weight="400" fill="#52676E" text-anchor="start" data-box="1108,535,408,122" >Locale review + human approval</text>
</g>
<g id="node-EA" data-node="EA">
<rect x="1088" y="744" width="448" height="260" rx="18" fill="#E7E8E2" stroke="none" />
<rect x="1088" y="740" width="448" height="260" rx="18" fill="#FFFFFF" stroke="#DAE0DC" stroke-width="1.25" stroke-dasharray="none"/>
<rect x="1089" y="758" width="4" height="224" rx="2" fill="#267D72" stroke="none" />
<rect x="1112" y="761" width="35" height="28" rx="8" fill="#EAF3EF" stroke="none" />
<text x="1129.5" y="781" font-size="16" font-weight="700" fill="#267D72" text-anchor="middle" data-box="1112,761,35,28" >09</text>
<text x="1161" y="781" font-size="15" font-weight="600" fill="#267D72" text-anchor="start" data-box="1156,758,360,35" >CONTRACT / COMPONENT</text>
<text x="1112" y="822" font-size="25" font-weight="650" fill="#19343D" text-anchor="start" data-box="1108,795,408,192" >L3 es Audio Package</text>
<text x="1112" y="862" font-size="21" font-weight="400" fill="#52676E" text-anchor="start" data-box="1108,795,408,192" >human_reviewed</text>
<text x="1112" y="891" font-size="21" font-weight="400" fill="#52676E" text-anchor="start" data-box="1108,795,408,192" >or explicit audio_unavailable</text>
</g>
<g id="node-ER" data-node="ER">
<rect x="1088" y="1074" width="448" height="230" rx="18" fill="#E7E8E2" stroke="none" />
<rect x="1088" y="1070" width="448" height="230" rx="18" fill="#FFFFFF" stroke="#DAE0DC" stroke-width="1.25" stroke-dasharray="none"/>
<rect x="1089" y="1088" width="4" height="194" rx="2" fill="#267D72" stroke="none" />
<rect x="1112" y="1091" width="35" height="28" rx="8" fill="#EAF3EF" stroke="none" />
<text x="1129.5" y="1111" font-size="16" font-weight="700" fill="#267D72" text-anchor="middle" data-box="1112,1091,35,28" >10</text>
<text x="1161" y="1111" font-size="15" font-weight="600" fill="#267D72" text-anchor="start" data-box="1156,1088,360,35" >CONTRACT / COMPONENT</text>
<text x="1112" y="1152" font-size="25" font-weight="650" fill="#19343D" text-anchor="start" data-box="1108,1125,408,162" >L4 es Release Package</text>
<text x="1112" y="1192" font-size="21" font-weight="400" fill="#52676E" text-anchor="start" data-box="1108,1125,408,162" >Bound hashes + page approval</text>
</g>
<g id="node-PLAN" data-node="PLAN">
<rect x="300" y="1374" width="1000" height="200" rx="18" fill="#E7E8E2" stroke="none" />
<rect x="300" y="1370" width="1000" height="200" rx="18" fill="#FFFFFF" stroke="#DAE0DC" stroke-width="1.25" stroke-dasharray="none"/>
<rect x="301" y="1388" width="4" height="164" rx="2" fill="#AA7930" stroke="none" />
<rect x="324" y="1391" width="35" height="28" rx="8" fill="#FAF2E5" stroke="none" />
<text x="341.5" y="1411" font-size="16" font-weight="700" fill="#AA7930" text-anchor="middle" data-box="324,1391,35,28" >11</text>
<text x="373" y="1411" font-size="15" font-weight="600" fill="#AA7930" text-anchor="start" data-box="368,1388,912,35" >GATE</text>
<text x="324" y="1452" font-size="25" font-weight="650" fill="#19343D" text-anchor="start" data-box="320,1425,960,132" >Selected locales only, per release plan</text>
<text x="324" y="1492" font-size="21" font-weight="400" fill="#52676E" text-anchor="start" data-box="320,1425,960,132" >Text-only needs client capability</text>
</g>
<g id="node-AUTH" data-node="AUTH">
<rect x="300" y="1644" width="1000" height="170" rx="18" fill="#E7E8E2" stroke="none" />
<rect x="300" y="1640" width="1000" height="170" rx="18" fill="#FFFFFF" stroke="#DAE0DC" stroke-width="1.25" stroke-dasharray="none"/>
<rect x="301" y="1658" width="4" height="134" rx="2" fill="#AA7930" stroke="none" />
<rect x="324" y="1661" width="35" height="28" rx="8" fill="#FAF2E5" stroke="none" />
<text x="341.5" y="1681" font-size="16" font-weight="700" fill="#AA7930" text-anchor="middle" data-box="324,1661,35,28" >12</text>
<text x="373" y="1681" font-size="15" font-weight="600" fill="#AA7930" text-anchor="start" data-box="368,1658,912,35" >GATE</text>
<text x="324" y="1722" font-size="25" font-weight="650" fill="#19343D" text-anchor="start" data-box="320,1695,960,102" >Release authorization + target check</text>
</g>
<g id="node-HTTP" data-node="HTTP">
<rect x="300" y="1884" width="1000" height="170" rx="18" fill="#E7E8E2" stroke="none" />
<rect x="300" y="1880" width="1000" height="170" rx="18" fill="#FFFFFF" stroke="#DAE0DC" stroke-width="1.25" stroke-dasharray="none"/>
<rect x="301" y="1898" width="4" height="134" rx="2" fill="#267D72" stroke="none" />
<rect x="324" y="1901" width="35" height="28" rx="8" fill="#EAF3EF" stroke="none" />
<text x="341.5" y="1921" font-size="16" font-weight="700" fill="#267D72" text-anchor="middle" data-box="324,1901,35,28" >13</text>
<text x="373" y="1921" font-size="15" font-weight="600" fill="#267D72" text-anchor="start" data-box="368,1898,912,35" >OUTPUT</text>
<text x="324" y="1962" font-size="25" font-weight="650" fill="#19343D" text-anchor="start" data-box="320,1935,960,102" >Deploy + HTTP and hash verification</text>
</g>
<g id="node-CLIENT" data-node="CLIENT">
<rect x="300" y="2124" width="1000" height="200" rx="18" fill="#E7E8E2" stroke="none" />
<rect x="300" y="2120" width="1000" height="200" rx="18" fill="#FFFFFF" stroke="#DAE0DC" stroke-width="1.25" stroke-dasharray="none"/>
<rect x="301" y="2138" width="4" height="164" rx="2" fill="#267D72" stroke="none" />
<rect x="324" y="2141" width="35" height="28" rx="8" fill="#EAF3EF" stroke="none" />
<text x="341.5" y="2161" font-size="16" font-weight="700" fill="#267D72" text-anchor="middle" data-box="324,2141,35,28" >14</text>
<text x="373" y="2161" font-size="15" font-weight="600" fill="#267D72" text-anchor="start" data-box="368,2138,912,35" >OUTPUT</text>
<text x="324" y="2202" font-size="25" font-weight="650" fill="#19343D" text-anchor="start" data-box="320,2175,960,132" >iOS primary, Web secondary</text>
<text x="324" y="2242" font-size="21" font-weight="400" fill="#52676E" text-anchor="start" data-box="320,2175,960,132" >Separate device and venue acceptance</text>
</g>
<rect x="64" y="2391" width="1472" height="78" rx="16" fill="#E9EEE8" stroke="none" />
<text x="84" y="2420" font-size="20" font-weight="400" fill="#4C635F" text-anchor="start" >Contract view; general L1-4 automatic dispatch is incomplete.</text>
<text x="84" y="2449" font-size="20" font-weight="400" fill="#4C635F" text-anchor="start" >Every locale requires L3, including explicit audio_unavailable. Selected locales follow the release plan.</text>
<text x="64" y="2498" font-size="15" font-weight="400" fill="#7B8B88" text-anchor="start" >内容校准 2026-09-30 · 设计参考 Repository source / no ImageGen · 原生可编辑 SVG</text>
<text x="1536" y="2498" font-size="15" font-weight="400" fill="#7B8B88" text-anchor="end" >实线：主路径   虚线：条件 / 实验 / 历史</text>
</svg>
