<svg xmlns="http://www.w3.org/2000/svg" width="1400" height="900" viewBox="0 0 1400 900" role="img" aria-labelledby="title desc">
<title id="title">Saturday production · 周六文稿、PDF 与周日导出</title><desc id="desc">Supervisor weekly profile: Astra Medium · 自动生产和模型审核不等于人工同篇确认</desc>
<defs><marker id="arrow" markerWidth="9" markerHeight="9" refX="8" refY="4" orient="auto"><path d="M0 0L8 4L0 8Z" fill="#526580"/></marker><style>text{font-family:Arial,"PingFang SC","Microsoft YaHei",sans-serif;fill:#18304b}.title{font-size:30px;font-weight:700}.subtitle{font-size:16px;fill:#536782}.head{font-size:20px;font-weight:700}.body{font-size:17px}.note{font-size:15px;fill:#536782}.edge{fill:none;stroke:#526580;stroke-width:2;marker-end:url(#arrow)}.dash{stroke-dasharray:7 5}</style></defs>
<rect width="1400" height="900" rx="20" fill="#f5f8fc"/>
<text x="44" y="55" class="title" text-anchor="start">Saturday production · 周六文稿、PDF 与周日导出</text>
<text x="44" y="86" class="subtitle" text-anchor="start">Supervisor weekly profile: Astra Medium · 自动生产和模型审核不等于人工同篇确认</text>
<rect x="44" y="130" width="392" height="130" rx="14" fill="#edf4ff" stroke="#86abe6" stroke-width="1.5"/>
<text x="64" y="163" class="head" text-anchor="start">1 · Source + human window</text>
<text x="64" y="193" class="body" text-anchor="start">Authorized archive / hash / duration</text>
<text x="64" y="219" class="body" text-anchor="start">Operator approves exact sermon window</text>
<rect x="504" y="130" width="392" height="130" rx="14" fill="#f3efff" stroke="#aa98dc" stroke-width="1.5"/>
<text x="524" y="163" class="head" text-anchor="start">2 · English + Chinese</text>
<text x="524" y="193" class="body" text-anchor="start">Preserve English source provenance</text>
<text x="524" y="219" class="body" text-anchor="start">Astra Medium translation / two reviews</text>
<rect x="964" y="130" width="392" height="130" rx="14" fill="#eaf8f1" stroke="#70b897" stroke-width="1.5"/>
<text x="984" y="163" class="head" text-anchor="start">3 · Reading + PDF QA</text>
<text x="984" y="193" class="body" text-anchor="start">Reading text + companion → two PDFs</text>
<text x="984" y="219" class="body" text-anchor="start">Reading QA and both PDF QA must pass</text>
<path d="M436 195H504" class="edge"/>
<path d="M896 195H964" class="edge"/>
<rect x="964" y="360" width="392" height="160" rx="14" fill="#edf4ff" stroke="#86abe6" stroke-width="1.5"/>
<text x="984" y="393" class="head" text-anchor="start">4 · Delivery + export</text>
<text x="984" y="423" class="body" text-anchor="start">Supervisor enables export-sunday-context</text>
<text x="984" y="449" class="body" text-anchor="start">Two PDFs + Context Pack derivatives</text>
<text x="984" y="475" class="body" text-anchor="start">Standalone CLI: export is opt-in</text>
<text x="984" y="501" class="body" text-anchor="start">Export errors do not become success</text>
<path d="M1160 260V360" class="edge"/>
<text x="1215" y="312" class="note" text-anchor="middle">QA pass</text>
<rect x="504" y="360" width="392" height="160" rx="14" fill="#fff5e9" stroke="#e1aa68" stroke-width="1.5"/>
<text x="524" y="393" class="head" text-anchor="start">5 · Pack + readiness</text>
<text x="524" y="423" class="body" text-anchor="start">Segments / weekly-pack / manifest</text>
<text x="524" y="449" class="body" text-anchor="start">Same-message identity starts unknown</text>
<text x="524" y="475" class="body" text-anchor="start">Source hashes / dates / review status</text>
<text x="524" y="501" class="body" text-anchor="start">Atomic export; preserve prior pack</text>
<path d="M964 440H896" class="edge"/>
<rect x="44" y="360" width="392" height="160" rx="14" fill="#fff5e9" stroke="#e1aa68" stroke-width="1.5"/>
<text x="64" y="393" class="head" text-anchor="start">6 · Sunday capability gate</text>
<text x="64" y="423" class="body" text-anchor="start">Separate same-message human approval</text>
<text x="64" y="449" class="body" text-anchor="start">Hash / expiry / review verification</text>
<text x="64" y="475" class="body" text-anchor="start">Fail down; A0 none remains available</text>
<text x="64" y="501" class="body" text-anchor="start">Machine Chinese never auto-approved</text>
<path d="M504 440H436" class="edge"/>
<rect x="44" y="635" width="620" height="125" rx="14" fill="#fff5e9" stroke="#e1aa68" stroke-width="1.5"/>
<text x="64" y="668" class="head" text-anchor="start">Failure → preserve evidence and revise</text>
<text x="64" y="698" class="body" text-anchor="start">Source/window/reading/PDF QA failure blocks delivery.</text>
<text x="64" y="724" class="body" text-anchor="start">Keep recoverable artifacts; fix the failed stage and rerun.</text>
<path d="M1356 195H1377V595H354V635" class="edge dash"/>
<rect x="734" y="635" width="622" height="125" rx="14" fill="#eaf8f1" stroke="#70b897" stroke-width="1.5"/>
<text x="754" y="668" class="head" text-anchor="start">Optional enhancement, not Sunday source of truth</text>
<text x="754" y="698" class="body" text-anchor="start">Automatic export is implemented; weekly live benefit is unverified.</text>
<text x="754" y="724" class="body" text-anchor="start">Sunday audio + current English remain authoritative.</text>
<path d="M240 520V579H1045V635" class="edge dash"/>
<text x="44" y="851" class="note" text-anchor="start">Canonical outputs: sermon_zh_en_reading.pdf + sermon_interpretation_zh.pdf, with source/window/reading/PDF QA evidence.</text>
<text x="44" y="876" class="note" text-anchor="start">Code baseline: main beeda82 · future weekly runs use this profile; historical runs are not silently regenerated.</text>
</svg>
